PathFileType	4	(X/Y/Z)	c:\Git\powerlifing_model_clean\simulations\HC835B\Session1\HC835B_OGR_0008\marker_experimental.trc
DataRate	CameraRate	NumFrames	NumMarkers	Units	OrigDataRate	OrigDataStartFrame	OrigNumFrames
240.000000	240.000000	4	38	mm	240.000000	162	217
Frame#	Time	RPSI			LPSI			RASI			LASI			RTH1			RTH2			RTH3			RTH4			RSK1			RSK2			RSK3			RSK4			RCAL1			RCAL2			RCAL3			RST			RPT			RTN			RFMB			RSMB			RVMB			RFMH			RSMH			RVMH			RPM			LTH1			LTH2			LTH3			LTH4			LSK1			LSK2			LSK3			LSK4			LCAL1			LCAL2			LCAL3			LFMH			LVMH			
		X1	Y1	Z1	X2	Y2	Z2	X3	Y3	Z3	X4	Y4	Z4	X5	Y5	Z5	X6	Y6	Z6	X7	Y7	Z7	X8	Y8	Z8	X9	Y9	Z9	X10	Y10	Z10	X11	Y11	Z11	X12	Y12	Z12	X13	Y13	Z13	X14	Y14	Z14	X15	Y15	Z15	X16	Y16	Z16	X17	Y17	Z17	X18	Y18	Z18	X19	Y19	Z19	X20	Y20	Z20	X21	Y21	Z21	X22	Y22	Z22	X23	Y23	Z23	X24	Y24	Z24	X25	Y25	Z25	X26	Y26	Z26	X27	Y27	Z27	X28	Y28	Z28	X29	Y29	Z29	X30	Y30	Z30	X31	Y31	Z31	X32	Y32	Z32	X33	Y33	Z33	X34	Y34	Z34	X35	Y35	Z35	X36	Y36	Z36	X37	Y37	Z37	X38	Y38	Z38	

163	0.675	483.4914550781251	1169.210205078125	-1880.2109375	370.0864257812501	1166.019287109375	-1881.438720703125	533.9107666015626	1096.932983398438	-2080.06298828125	295.2657165527344	1082.954345703125	-2074.479736328125	620.4101562500001	857.0640869140627	-2108.304443359375	608.4862060546876	874.6638183593752	-2165.38623046875	608.6023559570314	795.9983520507815	-2165.727294921875	585.3806762695314	810.9724121093752	-2217.628662109375	558.3473510742189	462.8350830078126	-2006.8046875	557.1716308593751	414.6199645996095	-2045.3125	552.6727294921876	408.6426696777345	-1984.656494140625	539.4234619140626	363.7531127929688	-2022.085693359375	492.8793334960939	334.9882812500001	-1849.081420898438	455.1688232421876	307.5493469238282	-1833.492797851563	519.6900024414064	302.9442138671876	-1824.06103515625	445.1220703125001	273.4428710937501	-1895.318725585938	544.8850708007814	267.7983398437501	-1873.669067382813	461.8267822265626	249.1638641357422	-1947.007934570313	461.5718688964845	214.711166381836	-1958.581176757813	512.2556152343751	219.4145202636719	-1977.127197265625	549.6451416015626	217.2675933837891	-1887.850830078125	452.1210327148439	155.7891235351563	-1977.060546875	507.4473266601564	152.0223083496094	-1993.117309570313	563.0628051757814	155.546142578125	-1936.992919921875	495.9621582031251	111.7736282348633	-2031.256225585938	243.092025756836	825.8037719726565	-1908.56884765625	251.5164489746094	798.0922851562502	-1962.060424804688	253.6582641601563	740.3268432617189	-1904.54443359375	277.5036315917969	715.8153686523439	-1954.9443359375	301.4006347656251	359.8132324218751	-1659.960083007813	294.3722534179688	320.9140014648438	-1696.895141601563	305.2563476562501	303.5685424804688	-1651.530395507813	312.3200683593751	265.6576843261719	-1692.596435546875	368.6757202148438	204.3615722656251	-1539.3974609375	345.9227600097657	168.958969116211	-1517.123901367188	403.9646911621095	175.6363067626953	-1524.888427734375	419.832977294922	57.79139328002931	-1702.425170898438	314.2615661621094	38.69221878051759	-1651.310913085938	
164	0.6791666666666667	483.6481323242189	1172.708984375	-1894.204467773438	370.1113281250001	1168.738525390625	-1895.8935546875	534.1471557617189	1100.984375	-2093.75439453125	295.9948730468751	1085.496826171875	-2088.929443359375	620.2986450195314	860.3398437500002	-2122.5302734375	608.5368652343751	877.812438964844	-2179.72265625	608.4410400390626	799.1001586914065	-2179.86328125	585.4017944335939	814.033874511719	-2231.802490234375	557.5227050781251	457.9984741210939	-2025.669067382813	556.6818237304689	411.136688232422	-2065.919189453125	551.8070678710939	403.0294494628907	-2005.56884765625	539.0059204101564	359.4129943847657	-2044.680541992188	491.6518859863282	323.8533325195313	-1872.92724609375	453.7400207519532	295.9597473144532	-1858.743408203125	517.9086914062501	290.5103149414063	-1849.274536132813	444.1271362304689	264.5630798339844	-1921.949096679688	543.6527709960939	257.5626525878907	-1899.8291015625	461.1884155273439	242.1761016845704	-1974.397338867188	460.946990966797	208.2615661621094	-1987.423095703125	511.7464294433595	213.4199829101563	-2005.356079101563	548.3874511718751	207.6229248046876	-1915.981323242188	451.3751220703126	150.1322784423828	-2008.393310546875	506.7884216308595	146.8204650878907	-2024.15234375	561.9856567382814	147.87353515625	-1967.496337890625	495.5089721679689	108.2817687988282	-2063.966796875	242.9000244140626	829.460388183594	-1920.125122070313	252.2335662841797	801.0007324218752	-1973.130004882813	253.7241973876954	744.1677246093751	-1914.7626953125	278.4701538085938	718.8895874023439	-1964.37451171875	300.5098571777344	364.6674499511719	-1666.274291992188	292.4511718750001	326.0731811523438	-1703.290405273438	303.9491882324219	308.4450073242188	-1657.78173828125	310.4299926757813	270.5029296875001	-1698.96435546875	367.4225769042969	211.7089233398438	-1547.843383789063	345.2264099121094	176.8046417236328	-1524.09228515625	403.0361328125001	183.8707885742188	-1532.562744140625	418.885467529297	58.98805999755861	-1705.326293945313	314.1562500000001	40.35259628295899	-1652.495239257813	
165	0.6833333333333333	483.6858520507814	1176.155151367188	-1908.233154296875	370.0487976074219	1171.361938476563	-1910.294067382813	534.4652709960939	1105.065307617188	-2107.528076171875	296.8788757324219	1088.010131835938	-2103.447021484375	620.0254516601564	863.401062011719	-2136.615234375	608.4949340820314	880.720642089844	-2193.916748046875	608.2620239257814	802.0299072265627	-2193.759765625	585.2122802734376	816.7954711914065	-2245.826171875	556.6218872070314	453.0658569335939	-2044.5458984375	556.3306274414064	407.6334533691407	-2086.439453125	550.8319702148439	397.3236389160157	-2026.5654296875	538.6583251953126	355.1073608398438	-2067.24072265625	490.0315246582032	312.5925598144532	-1897.31298828125	452.1926879882814	284.4091186523438	-1884.400268554688	515.2484130859376	277.5178222656251	-1874.93115234375	443.0823364257814	255.7532958984376	-1948.914428710938	542.5155029296876	247.421615600586	-1925.382934570313	459.8351135253907	236.4681396484376	-2004.063354492188	460.3821105957032	201.9504089355469	-2016.486938476563	511.3721313476564	207.9099884033204	-2033.987670898438	547.0999755859376	198.2286987304688	-1944.39892578125	450.7943725585939	144.7539367675782	-2039.779418945313	506.360076904297	141.9510955810547	-2055.20361328125	561.0504150390626	140.4617614746094	-1998.064697265625	495.205047607422	105.0501022338867	-2096.6357421875	242.6348876953126	832.972351074219	-1931.81787109375	252.7881622314454	803.6950683593752	-1984.316528320313	253.8024139404297	747.7851562500001	-1925.03564453125	279.2613220214844	721.9537353515626	-1974.024291992188	299.5236816406251	369.4944152832032	-1672.63134765625	290.9503173828126	331.0929565429688	-1709.601196289063	302.6987915039063	313.2312622070313	-1664.246948242188	308.6070861816407	275.4141845703126	-1705.542846679688	365.8376770019532	218.8599243164063	-1556.61669921875	344.4025268554688	184.7643127441407	-1531.191284179688	402.0503234863282	192.2652893066407	-1540.443359375	417.8790588378907	60.45875930786134	-1708.5732421875	314.1307983398438	42.57926940917969	-1653.92041015625	
166	0.6875	483.7842712402345	1179.462646484375	-1922.277709960938	370.0084533691407	1173.937255859375	-1924.752807617188	534.7152709960939	1109.090454101563	-2121.443603515625	297.8234558105469	1090.470336914063	-2118.012451171875	619.6106567382814	866.1846923828127	-2150.51806640625	608.2482299804689	883.289489746094	-2207.91162109375	607.8454589843751	804.6208496093752	-2207.51416015625	584.9763183593751	819.2930908203127	-2259.64111328125	555.6293945312501	448.0198059082032	-2063.3681640625	556.0335083007814	404.1340637207032	-2106.84033203125	550.0227050781251	391.7431945800782	-2047.479736328125	538.5377197265626	350.9455871582032	-2089.717529296875	488.526580810547	301.4098510742188	-1921.867919921875	450.5592651367189	272.9667663574219	-1910.404296875	513.5048217773439	265.5461425781251	-1900.588134765625	442.0970153808595	246.9472198486329	-1976.088134765625	540.8547363281251	237.3286132812501	-1952.276977539063	459.2984619140626	229.9509582519532	-2031.884155273438	459.9196166992189	195.8084411621094	-2045.49658203125	511.1589355468751	202.4539947509766	-2062.39501953125	545.6500854492189	188.9249572753907	-1972.576416015625	450.4185485839845	139.7821655273438	-2071.29833984375	506.1153564453126	137.3948516845703	-2086.273681640625	560.0381469726564	133.2695007324219	-2028.567260742188	495.3182373046876	102.3019790649414	-2129.209228515625	242.3628234863282	836.3386230468752	-1943.569946289063	253.2346801757813	806.4387207031252	-1995.526977539063	253.9902648925782	751.4094848632814	-1935.318481445313	279.8869628906251	724.9431152343751	-1983.86962890625	298.4596862792969	374.4214782714844	-1679.16162109375	289.5096130371094	336.0319213867188	-1716.183227539063	301.4783630371094	317.9884643554688	-1670.9755859375	307.0402221679688	280.3579101562501	-1712.376831054688	364.3122253417969	226.3063049316407	-1565.317626953125	343.4960327148438	192.8694152832032	-1538.468872070313	400.9497985839845	200.8171997070313	-1548.432739257813	416.8026428222657	62.29867172241212	-1711.946533203125	314.0964965820313	45.23452758789063	-1655.409790039063	
